<mxfile host="app.diagrams.net" modified="2024-07-08T05:16:04.620Z" agent="Mozilla/5.0 (Windows NT 10.0; Win64; x64) AppleWebKit/537.36 (KHTML, like Gecko) Chrome/126.0.0.0 Safari/537.36" version="24.6.4" etag="NTDmayJ6p0rFEyik_TdH" type="github">
  <diagram name="Page-1" id="Hmv5XgUySF50kmSMQmcE">
    <mxGraphModel>
      <root>
        <mxCell id="0" />
        <mxCell id="1" parent="0" />
      </root>
    </mxGraphModel>
  </diagram>
</mxfile>
